<svg xmlns="http://www.w3.org/2000/svg" width="335" height="291" viewBox="0 0 335 291"><g transform="translate(-53 -111)"><g transform="translate(16 11)"><path d="M163.167,7.528a5,5,0,0,1,8.667,0L330.686,283.506A5,5,0,0,1,326.353,291H8.647a5,5,0,0,1-4.333-7.494Z" transform="translate(37 100)" fill="#fc1a1a"/><path d="M39.78-142.188l-2.244,102h-15.5l-2.244-102ZM30.6,1.224a12.21,12.21,0,0,1-8.976-3.672,12.21,12.21,0,0,1-3.672-8.976A12.21,12.21,0,0,1,21.624-20.4,12.21,12.21,0,0,1,30.6-24.072,11.64,11.64,0,0,1,39.27-20.4a12.39,12.39,0,0,1,3.57,8.976,12.39,12.39,0,0,1-3.57,8.976A11.64,11.64,0,0,1,30.6,1.224Z" transform="translate(174 350)" fill="#fff"/></g></g></svg>